# xmcd
#
# Track frame offsets:
#	150
#	11996
#	22878
#	36249
#	49370
#	73362
#	87957
#	101625
#	111026
#	120194
#	133046
#	144012
#	154672
#	169258
#	181599
#	192313
#	209484
#	224288
#	244960
#	255677
#
# Disc length: 3590 seconds
#
# Revision: 2
# Processed by: cddbd v1.5.2PL0 Copyright (c) Steve Scherf et al.
# Submitted via: audiograbber 1.83.01
#
DISCID=1e0e0414
DTITLE=Various Artist - 100 Hits - The Best Country Album (2018) [Box-Set] [CD
DTITLE=2)
DYEAR=2018
DGENRE=Country
TTITLE0=Johnny Cash - Ring Of Fire
TTITLE1=Willie Nelson - On The Road Again
TTITLE2=Billy Swan - I Can Help
TTITLE3=Lynn Anderson - Rose Garden
TTITLE4=The Charlie Daniels Band - Uneasy Rider
TTITLE5=Rosanne Cash - My Baby Thinks He's A Train
TTITLE6=Waylon Jennings - Good Hearted Woman
TTITLE7=Barbara Mandrell - Tonight My Baby's Coming Home
TTITLE8=Charley Pride - Kiss An Angel Good Mornin'
TTITLE9=Merle Haggard - Let's Chase Each Other Around The Room
TTITLE10=Jimmy Dean - Little Black Book
TTITLE11=Perry Como - Delaware
TTITLE12=Lorne Greene - Ringo
TTITLE13=Bobby Bare - 500 Miles Away From Home
TTITLE14=Hank Locklin - Please Help Me, I'm Falling
TTITLE15=Ray Price - For The Good Times
TTITLE16=George Jones - He Stopped Loving Her Today
TTITLE17=Marianne Faithful - Visions Of Johanna
TTITLE18=Tanya Tucker - Would You Lay With Me (In A Field Of Stone)
TTITLE19=John Denver - Annie's Song
EXTD=MARO\n
EXTT0=
EXTT1=
EXTT2=
EXTT3=
EXTT4=
EXTT5=
EXTT6=
EXTT7=
EXTT8=
EXTT9=
EXTT10=
EXTT11=
EXTT12=
EXTT13=
EXTT14=
EXTT15=
EXTT16=
EXTT17=
EXTT18=
EXTT19=
PLAYORDER=
